<?xml version="1.0" encoding="UTF-8" standalone="no"?>
<!-- Created with Inkscape (http://www.inkscape.org/) -->

<svg
   xmlns:dc="http://purl.org/dc/elements/1.1/"
   xmlns:cc="http://creativecommons.org/ns#"
   xmlns:rdf="http://www.w3.org/1999/02/22-rdf-syntax-ns#"
   xmlns:svg="http://www.w3.org/2000/svg"
   xmlns="http://www.w3.org/2000/svg"
   xmlns:sodipodi="http://sodipodi.sourceforge.net/DTD/sodipodi-0.dtd"
   xmlns:inkscape="http://www.inkscape.org/namespaces/inkscape"
   version="1.1"
   id="svg815"
   xml:space="preserve"
   width="250"
   height="250"
   viewBox="0 0 250 250"
   sodipodi:docname="thank-you.svg"
   inkscape:version="0.92.3 (2405546, 2018-03-11)"><metadata
     id="metadata821"><rdf:RDF><cc:Work
         rdf:about=""><dc:format>image/svg+xml</dc:format><dc:type
           rdf:resource="http://purl.org/dc/dcmitype/StillImage" /><dc:title></dc:title></cc:Work></rdf:RDF></metadata><defs
     id="defs819"><clipPath
       clipPathUnits="userSpaceOnUse"
       id="clipPath1299"><path
         d="M 0,500 H 500 V 0 H 0 Z"
         id="path1297"
         inkscape:connector-curvature="0" /></clipPath></defs><sodipodi:namedview
     pagecolor="#ffffff"
     bordercolor="#666666"
     borderopacity="1"
     objecttolerance="10"
     gridtolerance="10"
     guidetolerance="10"
     inkscape:pageopacity="0"
     inkscape:pageshadow="2"
     inkscape:window-width="3840"
     inkscape:window-height="2066"
     id="namedview817"
     showgrid="false"
     inkscape:zoom="1.9547966"
     inkscape:cx="236.52268"
     inkscape:cy="101.35332"
     inkscape:window-x="-11"
     inkscape:window-y="-11"
     inkscape:window-maximized="1"
     inkscape:current-layer="g823" /><g
     id="g823"
     inkscape:groupmode="layer"
     inkscape:label="135179-OSIQOJ-27"
     transform="matrix(1.3333333,0,0,-1.3333333,0,249.99998)"><g
       aria-label="СПАСИБО"
       transform="scale(1,-1)"
       style="font-variant:normal;font-weight:bold;font-stretch:normal;font-size:77.0874939px;font-family:Quicksand;-inkscape-font-specification:Quicksand-Bold;writing-mode:lr-tb;fill:#333333;fill-opacity:1;fill-rule:nonzero;stroke:none;stroke-width:1.98203528"
       id="text1287"><path
         d="m 26.029496,-100.38511 q 0,0.713531 -0.436048,1.506345 -0.713532,1.268503 -1.823472,2.497365 -1.10994,1.189221 -2.497365,2.140598 -1.387424,0.951377 -3.012693,1.545987 -1.625269,0.55497 -3.36946,0.55497 -1.387425,0 -2.616287,-0.277485 -1.189221,-0.317125 -2.100957,-0.673892 H 9.5786035 q 1.3874245,0.713533 2.6955675,0.991018 1.347784,0.277485 2.655928,0.277485 2.061316,0 3.765867,-0.594611 1.744191,-0.59461 3.131615,-1.545987 1.387425,-0.991018 2.457724,-2.25952 1.10994,-1.308144 1.902754,-2.735209 0.277485,-0.515329 0.753173,-0.515329 0.475689,0 0.475689,0.515329 0,0.436048 -0.396407,1.189221 -1.704551,3.409101 -4.836166,5.470417 -3.091975,2.061317 -7.254249,2.061317 -2.259521,0 -4.4794,-0.792814 -2.1802388,-0.832455 -4.0037112,-2.25952 -1.8234725,-1.466706 -3.1316157,-3.488382 -1.3081433,-2.021676 -1.7838318,-4.439763 l -0.5153291,-1.0703 q 0.1982035,2.655932 1.4270654,4.955093 1.2288618,2.25952 3.1316157,3.96407 1.9423945,1.66491 4.3604775,2.616287 2.4577242,0.991017 5.0343692,0.991017 1.902754,0 4.043352,-0.554969 l -0.832455,0.753173 q -0.277484,0.03964 -0.753173,0.07928 -0.436048,0.03964 -0.911736,0.07928 -0.436048,0.03964 -0.832455,0.03964 -0.356766,0.03964 -0.475688,0.03964 -3.171257,0 -5.9064655,-1.10994 -2.6955679,-1.109939 -4.7172439,-3.052334 -1.9820352,-1.982035 -3.1316157,-4.677603 -1.14958043,-2.735208 -1.14958043,-5.985748 0,-2.97305 1.07029903,-5.5497 1.0702991,-2.61628 2.9730529,-4.51904 1.9027538,-1.94239 4.4793997,-3.01269 2.5766459,-1.10994 5.5893389,-1.10994 0.832455,0 1.823473,0.0793 1.030658,0.0793 1.466706,0.15856 l 0.753173,0.59461 q -0.991017,-0.27748 -2.021676,-0.35676 -1.030658,-0.0793 -2.021676,-0.0793 -2.695567,0 -5.0740098,1.10994 -2.3388016,1.07029 -4.2019147,2.89377 H 5.614533 q 0.4360477,-0.39641 1.1892211,-0.99102 0.7928141,-0.59461 1.9027539,-1.14958 1.1099397,-0.59461 2.537005,-0.99102 1.427065,-0.43605 3.131616,-0.43605 1.506347,0 3.131615,0.39641 1.625269,0.35677 2.933413,0.95138 1.347784,0.55497 2.219879,1.2685 0.872096,0.71353 0.872096,1.34778 0,0.59461 -0.55497,0.59461 -0.396407,0 -0.832455,-0.31712 -1.466706,-1.03066 -3.290179,-1.78383 -1.823472,-0.79282 -4.400118,-0.79282 -1.863113,0 -3.488382,0.51533 -1.6252688,0.51533 -2.933412,1.42707 -1.3081433,0.87209 -2.2595202,2.10096 -0.9513769,1.18922 -1.4270654,2.537 l 0.5549699,-0.55497 q 1.4270654,-2.77485 4.0829926,-4.20191 2.6955681,-1.46671 5.5100581,-1.46671 0.713533,0 1.506347,0.11892 0.832455,0.0793 1.506346,0.27749 0.713533,0.15856 1.149581,0.43604 0.475688,0.23785 0.475688,0.55497 0,0.39641 -0.436047,0.39641 -0.118922,0 -0.55497,-0.0793 -0.436048,-0.11892 -1.030659,-0.23784 -0.59461,-0.11893 -1.308143,-0.19821 -0.673892,-0.11892 -1.268502,-0.11892 -2.457724,0 -4.400119,0.99102 -1.9027535,0.99102 -3.2505375,2.57664 -1.3081432,1.58563 -2.0216759,3.48839 -0.7135327,1.90275 -0.7135327,3.76586 0,1.74419 0.7928141,3.528026 0.7928141,1.744191 2.1802388,3.171256 1.3874246,1.427065 3.3298192,2.338802 1.942395,0.872095 4.201915,0.872095 2.893771,0 5.311854,-1.70455 2.418083,-1.744191 4.281196,-4.994729 0.55497,-0.91174 1.10994,-0.91174 0.237844,0 0.436048,0.23785 0.237844,0.1982 0.237844,0.59461 z"
         style="font-style:normal;font-variant:normal;font-weight:bold;font-stretch:normal;font-size:39.64070511px;font-family:Burlak;-inkscape-font-specification:'Burlak Bold';stroke-width:1.98203528"
         id="path1456" /><path
         d="m 31.650424,-90.75242 v -20.85101 l -0.317126,-1.03066 v 20.811371 q 0,1.189221 -0.713532,1.189221 -0.673892,0 -0.673892,-1.189221 v -22.238431 q 0,-0.95138 0.475688,-1.50635 0.515329,-0.55497 1.545988,-0.55497 h 7.848859 l 1.268503,-0.59461 h -9.394847 q -2.299161,0 -2.299161,2.37844 v 11.05976 l -0.594611,-1.78383 v -9.51377 q 0,-1.50635 0.594611,-2.1406 0.634251,-0.67389 2.021676,-0.67389 h 15.777 q 1.070299,0 1.66491,0.59461 0.594611,0.59461 0.594611,2.14059 v 16.60946 l -0.55497,1.506347 v -13.239997 l -0.55497,1.34779 v 17.759031 q 0,0.911736 -0.713533,0.911736 -0.317125,0 -0.55497,-0.158562 -0.237844,-0.158563 -0.237844,-0.713533 V -113.4269 l -0.515329,-0.95138 v 24.299752 q 0,0.396407 -0.198204,0.55497 -0.198203,0.198203 -0.436047,0.198203 -0.237845,0 -0.436048,-0.198203 -0.198204,-0.158563 -0.198204,-0.594611 V -113.4269 H 33.354974 v 22.753761 q 0,0.515329 -0.277485,0.832455 -0.277485,0.356766 -0.554969,0.356766 -0.317126,0 -0.594611,-0.277485 -0.277485,-0.277484 -0.277485,-0.991017 z"
         style="font-style:normal;font-variant:normal;font-weight:bold;font-stretch:normal;font-size:39.64070511px;font-family:Burlak;-inkscape-font-specification:'Burlak Bold';stroke-width:1.98203528"
         id="path1458" /><path
         d="m 74.62962,-89.840684 q 0,-0.277485 0.07928,-1.268502 0.118922,-1.030659 0.237844,-2.378443 0.118922,-1.347784 0.198204,-2.854131 0.118922,-1.545987 0.158563,-2.85413 h -0.475689 q 0,1.664909 -0.07928,3.091975 -0.07928,1.387424 -0.237845,2.457723 -0.158562,1.030659 -0.436047,1.625269 -0.277485,0.594611 -0.673892,0.594611 -0.594611,0 -0.594611,-0.713533 0,-0.237844 0.03964,-1.070299 0.07928,-0.872095 0.158563,-1.942394 0.07928,-1.10994 0.118922,-2.21988 0.07928,-1.10994 0.07928,-1.902754 -1.902754,-0.07928 -4.281196,-0.158563 -2.378442,-0.118922 -4.955088,0.03964 0,1.506347 -0.277485,3.131616 -0.277485,1.625269 -0.951377,2.973053 -0.673892,1.308143 -1.863113,2.180239 -1.189221,0.872095 -2.973053,0.872095 -1.545988,0 -2.655927,-0.55497 -1.10994,-0.55497 -1.823473,-1.466706 -0.673892,-0.911736 -0.991017,-2.061317 -0.317126,-1.189221 -0.317126,-2.418083 0,-1.982035 0.673892,-3.210897 0.713533,-1.228866 1.823472,-1.942396 1.10994,-0.75317 2.497365,-1.0703 1.427065,-0.35676 2.81449,-0.55497 -0.07928,-1.82347 0.118922,-4.16227 0.237844,-2.37844 1.10994,-4.4794 0.872095,-2.1406 2.537005,-3.60731 1.70455,-1.4667 4.558681,-1.4667 2.933412,0 4.677603,1.58563 1.783832,1.54598 2.695568,3.84515 0.951377,2.25952 1.228862,4.79652 0.317126,2.53701 0.317126,4.43976 0.991017,0 1.70455,-0.15856 0.753173,-0.15857 1.308143,-0.31713 0.55497,-0.1982 0.991018,-0.35677 0.436048,-0.15856 0.872095,-0.15856 0.55497,0 0.55497,0.55497 0,0.43605 -0.55497,0.83246 -0.515329,0.3964 -1.347784,0.71353 -0.792814,0.27748 -1.744191,0.43605 -0.911736,0.15856 -1.70455,0.15856 v 0.51533 q 0.673892,0 0.911736,0.11892 0.237844,0.11892 0.237844,0.356768 0,0.634251 -1.14958,0.634251 0,1.070299 -0.07928,2.81449 -0.03964,1.744191 -0.237845,3.409101 -0.198203,1.664909 -0.59461,2.85413 -0.356767,1.228862 -0.991018,1.228862 -0.436048,0 -0.59461,-0.277485 -0.118922,-0.237844 -0.118922,-0.634251 z M 60.002199,-100.34547 v -0.31713 q -1.070299,0.19821 -2.100957,0.47569 -0.991018,0.237846 -1.783832,0.594613 -1.228862,0.554969 -1.585628,1.228861 -0.356766,0.673892 -0.356766,1.466707 0,0.59461 0.118922,1.189221 l 0.356766,0.396407 q -0.07928,-0.07928 -0.158563,-0.55497 -0.03964,-0.515329 -0.03964,-0.872096 0,-0.951377 0.475688,-1.545987 0.475689,-0.634251 1.228862,-1.030658 0.792814,-0.396408 1.783832,-0.634252 1.030658,-0.237846 2.061316,-0.396406 z m -2.299161,6.461434 q 0.55497,0 0.951377,-0.515329 0.436048,-0.55497 0.713533,-1.347784 0.317126,-0.792814 0.475689,-1.66491 0.158562,-0.911736 0.158562,-1.625269 -1.347784,0.158563 -2.616286,0.55497 -1.268503,0.396407 -1.744191,1.030659 0,0.59461 0.118922,1.228862 0.158563,0.59461 0.436048,1.14958 0.277485,0.515329 0.673892,0.872096 0.396407,0.317125 0.832454,0.317125 z m 5.58934,-5.470417 h -0.317126 q 0,0.396407 -0.03964,0.991017 -0.03964,0.55497 -0.118923,1.10994 -0.07928,0.55497 -0.158562,1.030659 -0.03964,0.475688 -0.118923,0.673892 l 0.03964,0.951376 q 0.436048,-1.268502 0.55497,-2.418083 0.158563,-1.189221 0.158563,-2.338801 z M 63.96627,-101.059 v 0.27748 q 4.637962,-0.11892 9.236284,0.23785 v -0.43605 q -3.409101,-0.15856 -5.549699,-0.15856 -2.100957,0 -3.686585,0.0793 z m -0.911736,0.35676 h 0.237844 v -0.31712 h -0.317126 v 0.35676 z m 12.248978,-0.11892 -0.475689,-0.0396 v 0.39641 l 0.475689,0.0396 z m 0,-1.74419 v -0.47569 l -0.475689,-0.0396 v 0.47569 z m -7.095687,-0.35677 q 1.347784,0 2.655928,0.0793 1.308143,0.0793 2.338801,0.11893 v -0.47569 q -1.228862,-0.0793 -2.497364,-0.11892 -1.268503,-0.0793 -2.497365,-0.0793 -2.219879,0 -4.241555,0.11893 v 0.43604 q 1.466706,-0.0793 2.378442,-0.0793 0.911736,0 1.863113,0 z m -12.050774,0.91174 1.387425,-0.0396 1.030658,-0.23785 1.347784,-0.23784 v -0.35677 q -0.872096,0.0793 -1.823473,0.31713 -0.911736,0.23784 -1.942394,0.55497 z m 18.670772,-1.58563 0.475689,0.0396 q 0,-1.4667 -0.317126,-3.52802 -0.277485,-2.10096 -1.070299,-4.00371 -0.792814,-1.90276 -2.180239,-3.25054 -1.347784,-1.34778 -3.528023,-1.34778 -1.308143,0 -2.219879,0.35676 -0.911736,0.35677 -1.585628,0.91174 l -0.356767,0.71353 q 0.237844,-0.47569 0.753174,-0.79281 0.55497,-0.35677 1.14958,-0.51533 0.634251,-0.19821 1.228862,-0.27749 0.594611,-0.0793 0.991018,-0.0793 2.061316,-0.0396 3.329819,1.34779 1.308143,1.38742 2.021676,3.29017 0.753173,1.90276 1.030658,3.92443 0.277485,1.98204 0.277485,3.2109 z m -10.861553,-0.23784 q 1.070299,-0.0396 2.140598,-0.0396 1.10994,-0.0396 2.219879,-0.0396 1.228862,0 2.457724,0.0793 1.228862,0.0396 2.418083,0.11892 0,-0.75317 -0.198203,-2.37844 -0.158563,-1.66491 -0.713533,-3.32982 -0.55497,-1.70455 -1.545988,-2.97306 -0.991017,-1.30814 -2.616286,-1.30814 -1.545988,0 -2.576646,0.99102 -0.991018,0.99102 -1.506347,2.537 -0.55497,1.62527 -0.753173,3.25054 -0.198204,1.62527 -0.277485,3.09198 h 0.317126 q 0.118922,-1.34779 0.277484,-2.97306 0.198204,-1.62526 0.673892,-3.01269 0.51533,-1.42706 1.387425,-2.37844 0.911736,-0.95138 2.457724,-0.95138 1.268502,0 2.25952,1.0703 1.030658,1.03066 1.625269,2.77485 l 0.158563,1.38742 q -0.55497,-1.98203 -1.625269,-3.36946 -1.030658,-1.42706 -2.418083,-1.42706 -1.268503,0 -2.061317,0.91174 -0.753173,0.91173 -1.228862,2.25952 -0.436047,1.30814 -0.634251,2.85413 -0.158563,1.54598 -0.237844,2.85413 z m -0.634251,0.99101 v -0.43604 l -0.317126,0.0396 v 0.43605 z"
         style="font-style:normal;font-variant:normal;font-weight:bold;font-stretch:normal;font-size:39.64070511px;font-family:Burlak;-inkscape-font-specification:'Burlak Bold';stroke-width:1.98203528"
         id="path1460" /><path
         d="m 108.40784,-100.38511 q 0,0.713531 -0.43605,1.506345 -0.71353,1.268503 -1.82347,2.497365 -1.10994,1.189221 -2.49737,2.140598 -1.38742,0.951377 -3.01269,1.545987 -1.625269,0.55497 -3.36946,0.55497 -1.387425,0 -2.616287,-0.277485 -1.189221,-0.317125 -2.100957,-0.673892 h -0.594611 q 1.387425,0.713533 2.695568,0.991018 1.347784,0.277485 2.655927,0.277485 2.061317,0 3.76587,-0.594611 1.74419,-0.59461 3.13161,-1.545987 1.38743,-0.991018 2.45773,-2.25952 1.10994,-1.308144 1.90275,-2.735209 0.27749,-0.515329 0.75317,-0.515329 0.47569,0 0.47569,0.515329 0,0.436048 -0.3964,1.189221 -1.70455,3.409101 -4.83617,5.470417 -3.09198,2.061317 -7.25425,2.061317 -2.25952,0 -4.479399,-0.792814 -2.180239,-0.832455 -4.003712,-2.25952 -1.823472,-1.466706 -3.131615,-3.488382 -1.308144,-2.021676 -1.783832,-4.439763 l -0.515329,-1.0703 q 0.198203,2.655932 1.427065,4.955093 1.228862,2.25952 3.131616,3.96407 1.942394,1.66491 4.360477,2.616287 2.457724,0.991017 5.03437,0.991017 1.902754,0 4.043349,-0.554969 l -0.83245,0.753173 q -0.27749,0.03964 -0.753175,0.07928 -0.436048,0.03964 -0.911736,0.07928 -0.436048,0.03964 -0.832455,0.03964 -0.356767,0.03964 -0.475689,0.03964 -3.171256,0 -5.906465,-1.10994 -2.695568,-1.109939 -4.717244,-3.052334 -1.982035,-1.982035 -3.131615,-4.677603 -1.149581,-2.735208 -1.149581,-5.985748 0,-2.97305 1.070299,-5.5497 1.070299,-2.61628 2.973053,-4.51904 1.902754,-1.94239 4.4794,-3.01269 2.576646,-1.10994 5.589339,-1.10994 0.832455,0 1.823473,0.0793 1.030658,0.0793 1.466706,0.15856 l 0.75317,0.59461 q -0.991015,-0.27748 -2.021673,-0.35676 -1.030658,-0.0793 -2.021676,-0.0793 -2.695568,0 -5.07401,1.10994 -2.338802,1.07029 -4.201915,2.89377 h 0.475689 q 0.436047,-0.39641 1.189221,-0.99102 0.792814,-0.59461 1.902754,-1.14958 1.109939,-0.59461 2.537005,-0.99102 1.427065,-0.43605 3.131615,-0.43605 1.506347,0 3.131616,0.39641 1.625274,0.35677 2.933414,0.95138 1.34778,0.55497 2.21988,1.2685 0.87209,0.71353 0.87209,1.34778 0,0.59461 -0.55497,0.59461 -0.3964,0 -0.83245,-0.31712 -1.46671,-1.03066 -3.29018,-1.78383 -1.823472,-0.79282 -4.400118,-0.79282 -1.863113,0 -3.488382,0.51533 -1.625269,0.51533 -2.933412,1.42707 -1.308144,0.87209 -2.259521,2.10096 -0.951376,1.18922 -1.427065,2.537 l 0.55497,-0.55497 q 1.427065,-2.77485 4.082993,-4.20191 2.695568,-1.46671 5.510058,-1.46671 0.713532,0 1.506346,0.11892 0.832455,0.0793 1.506347,0.27749 0.713534,0.15856 1.149584,0.43604 0.47569,0.23785 0.47569,0.55497 0,0.39641 -0.43605,0.39641 -0.11892,0 -0.55497,-0.0793 -0.43605,-0.11892 -1.030661,-0.23784 -0.59461,-0.11893 -1.308143,-0.19821 -0.673892,-0.11892 -1.268503,-0.11892 -2.457723,0 -4.400118,0.99102 -1.902754,0.99102 -3.250538,2.57664 -1.308143,1.58563 -2.021676,3.48839 -0.713532,1.90275 -0.713532,3.76586 0,1.74419 0.792814,3.528026 0.792814,1.744191 2.180238,3.171256 1.387425,1.427065 3.32982,2.338802 1.942394,0.872095 4.201914,0.872095 2.893772,0 5.311855,-1.70455 2.41808,-1.744191 4.2812,-4.994729 0.55497,-0.91174 1.10994,-0.91174 0.23784,0 0.43604,0.23785 0.23785,0.1982 0.23785,0.59461 z"
         style="font-style:normal;font-variant:normal;font-weight:bold;font-stretch:normal;font-size:39.64070511px;font-family:Burlak;-inkscape-font-specification:'Burlak Bold';stroke-width:1.98203528"
         id="path1462" /><path
         d="m 113.19631,-115.92427 v 17.838319 l 0.3964,-0.634251 v -16.886938 q 0,-0.51533 0.23785,-0.71353 0.23784,-0.19821 0.55497,-0.19821 0.75317,0 0.75317,0.83246 v 14.78598 q 1.74419,-2.06132 3.64695,-3.80551 1.94239,-1.74419 3.76586,-3.4091 0,-0.75317 -0.11892,-1.54599 -0.0793,-0.83245 -0.0793,-2.41808 0,-0.91174 0.1982,-1.90275 0.19821,-0.99102 0.6739,-1.78384 0.47568,-0.79281 1.2685,-1.30814 0.83245,-0.51533 2.02167,-0.51533 2.1406,0 2.97306,1.38743 0.87209,1.34778 0.87209,2.89377 0,1.30814 -0.35676,2.25952 -0.35677,0.95138 -0.91174,1.70455 -0.51533,0.71353 -1.18922,1.30814 -0.63425,0.59461 -1.22886,1.14958 v 14.032812 l -0.59461,1.506347 v -14.984189 l -0.35677,0.31713 v 15.063466 q 0,0.55497 -0.23784,0.792814 -0.23785,0.277485 -0.51533,0.277485 -0.27749,0 -0.55497,-0.198203 -0.27749,-0.198204 -0.27749,-0.792814 v -13.715688 l -0.39641,0.35677 v 12.526463 q 0,0.277485 -0.15856,0.55497 -0.15856,0.237844 -0.39641,0.237844 -0.63425,0 -0.63425,-0.753173 v -11.495804 q -0.83245,0.87209 -1.82347,1.86311 -0.95138,0.95138 -1.86311,2.021678 -0.91174,1.070299 -1.70455,2.25952 -0.75318,1.149581 -1.18922,2.457724 0,0.594611 0.0396,1.070299 0.0396,0.436048 0.0396,0.832455 0,1.228862 -0.79282,1.783832 -0.75317,0.55497 -1.54598,0.55497 -1.14958,0 -1.66491,-0.872096 -0.47569,-0.911736 -0.47569,-2.457724 v -22.238438 q 0,-0.51533 0.27748,-0.79281 0.31713,-0.31713 0.59461,-0.31713 0.75318,0 0.75318,1.0703 z m 10.46514,6.77856 0.31713,-0.35676 q 0,-0.55497 -0.0396,-1.18922 -0.0396,-0.6739 -0.0396,-1.38743 0,-1.54599 0.51533,-2.85413 0.51533,-1.30814 2.10095,-1.30814 1.14958,0 1.86312,0.95137 0.75317,0.91174 0.75317,1.66491 v -0.99101 q -0.27748,-0.71354 -0.8721,-1.30815 -0.55496,-0.63425 -1.74419,-0.63425 -1.66491,0 -2.3388,1.18922 -0.63425,1.14958 -0.63425,3.29018 0,0.99102 0.0396,1.74419 0.0793,0.75317 0.0793,1.18922 z m 2.29916,-3.52802 -0.15856,0.47569 -0.0793,0.71353 0.35677,-0.27748 v -0.51533 z m -12.3679,14.944546 -0.3964,0.832455 v 0.911736 l 0.3964,-0.991018 z m 1.54599,-2.21988 v 0.634252 q 1.86311,-2.180238 3.72623,-3.964068 1.86311,-1.78383 3.68658,-3.25054 v -0.67389 q -0.63425,0.55497 -1.62527,1.4667 -0.99101,0.8721 -2.06131,1.90276 -1.0703,1.03066 -2.06132,2.06131 -0.99102,1.03066 -1.66491,1.823476 z"
         style="font-style:normal;font-variant:normal;font-weight:bold;font-stretch:normal;font-size:39.64070511px;font-family:Burlak;-inkscape-font-specification:'Burlak Bold';stroke-width:1.98203528"
         id="path1464" /><path
         d="m 156.00332,-113.90259 q -0.27748,0 -1.38742,-0.23785 -1.0703,-0.23784 -2.49737,-0.51533 -1.42706,-0.27748 -3.01269,-0.51532 -1.54599,-0.23785 -2.81449,-0.23785 -2.73521,0 -4.16227,0.8721 -1.38743,0.83245 -1.98204,2.21988 -0.59461,1.38742 -0.63425,3.21089 0,1.82348 0,3.72623 0,1.10994 0.0793,2.10096 0.0793,0.99101 0.23785,1.98203 l 0.35676,-0.67389 q -0.15856,-1.86311 -0.1982,-3.13162 0,-1.30814 0,-2.85413 0,-3.76586 1.70455,-5.31185 1.70455,-1.58563 4.55868,-1.58563 0.8721,0 2.21988,0.15856 1.34778,0.11893 2.61629,0.35677 1.30814,0.23784 2.21988,0.59461 0.91173,0.35677 0.91173,0.75317 0,0.59461 -0.79281,0.59461 -0.75318,0 -1.86312,-0.1982 -1.07029,-0.23784 -2.29916,-0.51533 -1.18922,-0.31712 -2.06131,-0.31712 -2.93342,0 -4.32084,1.4667 -1.38742,1.46671 -1.38742,5.15329 v 3.96407 l 0.47568,-0.67389 q 0,-0.51533 0,-1.22886 0,-0.75317 0,-1.54599 0.0396,-0.79281 0.0793,-1.54598 0.0396,-0.75318 0.0793,-1.30815 l 0.63425,-1.10994 q -0.0396,0.35677 -0.11892,1.10994 -0.0396,0.71354 -0.11893,1.58563 -0.0396,0.8721 -0.0793,1.82347 0,0.91174 0,1.66491 0.83246,-1.30814 2.25952,-2.06131 1.46671,-0.79282 4.04335,-0.79282 2.45773,0 4.20192,0.75318 1.74419,0.71353 2.89377,1.94239 1.14958,1.18922 1.66491,2.81449 0.55497,1.585628 0.55497,3.36946 0,2.497365 -0.8721,4.281196 -0.83245,1.744191 -2.29916,2.893772 -1.4667,1.109939 -3.4091,1.625269 -1.90275,0.55497 -4.08299,0.55497 -2.53701,0 -4.59832,-0.198204 -2.02168,-0.158563 -2.53701,-0.356766 l -1.0703,-0.951377 q 1.98204,0.55497 3.96407,0.753173 1.98204,0.237844 4.24156,0.237844 2.29916,0.03964 4.75688,-0.991017 2.49737,-0.991018 3.92443,-3.052335 l -0.59461,0.198204 q -0.47568,0.713533 -1.38742,1.347784 -0.8721,0.594611 -1.98204,1.030658 -1.10994,0.475689 -2.3388,0.753174 -1.22886,0.277485 -2.41808,0.277485 -1.9424,0 -4.04335,-0.317126 -2.06132,-0.277485 -4.00371,-0.792814 -1.9424,-0.515329 -3.60731,-1.268503 -1.66491,-0.792814 -2.73521,-1.744191 -0.55497,-0.475688 -0.55497,-1.070299 0,-0.436048 0.35677,-0.436048 0.35677,0 1.50635,0.634252 2.85413,1.466706 6.14431,2.457723 3.29017,0.951377 6.85784,0.951377 1.62527,0 3.09197,-0.396407 1.46671,-0.436047 2.57665,-1.268502 1.10994,-0.872096 1.78383,-2.180239 0.67389,-1.308143 0.67389,-3.091975 l -0.43605,-1.189221 q 0.19821,1.189221 -0.11892,2.537005 -0.31712,1.347784 -1.22886,2.537005 -0.91174,1.149581 -2.49736,1.902754 -1.54599,0.753173 -3.80551,0.753173 -2.49737,0 -4.83617,-0.515329 -2.29916,-0.55497 -3.76586,-1.030658 -0.47569,-0.158563 -0.47569,-0.515329 0,-0.396407 0.43604,-0.396407 0.55497,0 1.42707,0.198203 0.91174,0.158563 2.02168,0.396407 1.10994,0.198204 2.37844,0.396407 1.30814,0.158563 2.69557,0.158563 1.22886,0 2.45772,-0.317126 1.22886,-0.356766 2.18024,-0.991017 0.99102,-0.634251 1.58563,-1.585628 0.59461,-0.951377 0.59461,-2.180239 0,-2.774851 -1.34779,-3.924431 -1.30814,-1.18922 -3.72622,-1.18922 -1.46671,0 -2.41809,0.43605 -0.95137,0.43605 -1.58562,1.30814 -0.63425,0.83246 -1.10994,2.100958 -0.47569,1.228862 -0.99102,2.854131 -0.27749,0.872096 -0.83246,1.308143 -0.55497,0.396407 -1.22886,0.396407 -1.38742,0 -1.94239,-0.991017 -0.51533,-0.991018 -0.63425,-2.061317 -0.0793,-0.634251 -0.15857,-1.585628 -0.0396,-0.991017 -0.11892,-2.061317 -0.0396,-1.0703 -0.0793,-2.10096 -0.0396,-1.0703 -0.0396,-1.90275 0,-2.65593 0.23784,-4.79653 0.23785,-2.18024 1.10994,-3.72622 0.8721,-1.54599 2.57665,-2.37844 1.70455,-0.8721 4.63796,-0.8721 0.95138,0 2.21988,0.11892 1.2685,0.11892 2.57665,0.31713 1.30814,0.15856 2.49736,0.43605 1.22886,0.23784 2.06132,0.51532 1.2685,0.43605 1.2685,1.26851 0,0.31712 -0.31712,0.47569 -0.27749,0.15856 -0.6739,0.15856 z m -14.03281,11.33724 -0.43604,0.71353 0.0396,0.55497 0.3964,-0.79281 z m 6.89749,-3.25054 -0.8721,-0.39641 q -1.94239,0 -3.25054,0.91174 -1.30814,0.91174 -2.29916,2.18024 v 0.43605 q 1.0703,-1.14958 1.90276,-1.78383 0.83245,-0.63426 1.58562,-0.91174 0.75318,-0.31713 1.42707,-0.35677 0.71353,-0.0793 1.50635,-0.0793 z"
         style="font-style:normal;font-variant:normal;font-weight:bold;font-stretch:normal;font-size:39.64070511px;font-family:Burlak;-inkscape-font-specification:'Burlak Bold';stroke-width:1.98203528"
         id="path1466" /><path
         d="m 160.12471,-102.64463 q 0,-2.93341 1.0703,-5.31186 1.0703,-2.37844 2.81449,-4.04335 1.78383,-1.66491 4.00371,-2.537 2.25952,-0.91174 4.59832,-0.91174 2.85413,0 4.99473,1.18922 2.18024,1.14958 3.96407,2.73521 l -0.39641,-0.83245 q -1.90275,-1.62527 -4.04335,-2.57665 -2.10095,-0.95138 -4.55868,-0.95138 -3.88479,0 -6.69928,1.82348 -2.81449,1.78383 -4.95509,4.95508 -0.43604,0.6739 -0.91173,0.6739 -0.19821,0 -0.35677,-0.11893 -0.15856,-0.15856 -0.15856,-0.31712 0,-0.8721 0.35676,-1.42707 1.26851,-2.06131 2.89378,-3.44874 1.66491,-1.38742 3.36946,-2.18024 1.74419,-0.83245 3.4091,-1.14958 1.70455,-0.35676 3.05233,-0.35676 1.70455,0 3.4091,0.51532 1.74419,0.51533 3.29018,1.46671 1.54599,0.91174 2.85413,2.21988 1.34779,1.30814 2.25952,2.89377 1.0703,1.82347 1.46671,3.56766 0.43605,1.7442 0.43605,3.25054 0,1.54599 -0.51533,3.09198 -0.51533,1.545985 -0.79282,2.537003 l -0.27748,1.070299 q 0.95137,-1.545988 1.42706,-3.131616 0.47569,-1.625266 0.47569,-3.567666 0,-2.97305 -1.0703,-5.58934 -1.0703,-2.61628 -3.05233,-4.55868 -1.9424,-1.98203 -4.75689,-3.09197 -2.77485,-1.14958 -6.26323,-1.14958 l 2.37844,-0.31713 q 2.57665,0 4.95509,1.10994 2.41809,1.10994 4.24156,3.09198 1.86311,1.98203 2.97305,4.6776 1.14958,2.69557 1.14958,5.82718 0,3.2109 -1.0703,5.866827 -1.0703,2.655927 -2.93341,4.558681 -1.82347,1.863113 -4.2812,2.893772 -2.41808,1.070299 -5.11365,1.070299 -2.73521,0 -5.11365,-0.673892 -2.3388,-0.634252 -4.20191,-1.863113 -1.82348,-1.228862 -3.05234,-2.933413 -1.22886,-1.70455 -1.70455,-3.845148 v -2.933413 q 0.15856,2.338802 1.18922,4.360478 1.0703,1.982036 2.69557,3.528023 1.66491,1.506347 3.72623,2.457724 2.06131,0.951377 4.24155,1.10994 l -0.71353,-0.396407 q -1.98203,-0.317126 -3.92443,-1.308144 -1.90275,-0.991017 -3.4091,-2.576645 -1.50635,-1.585629 -2.45772,-3.726227 -0.91174,-2.140602 -0.91174,-4.717242 z m 12.48682,-11.17868 q -2.3388,0 -4.32083,0.95138 -1.98204,0.95137 -3.44875,2.537 -1.42706,1.54599 -2.25952,3.56766 -0.79281,1.98204 -0.79281,4.12264 0,2.89377 1.03066,4.994727 1.0703,2.061317 2.73521,3.36946 1.70455,1.308143 3.8055,1.942395 2.10096,0.59461 4.20192,0.59461 1.18922,0 1.94239,-0.158563 0.75318,-0.198203 1.38743,-0.554969 h -1.0703 q -0.43605,0 -0.99102,0.158562 -0.55497,0.118922 -1.2685,0.118922 -2.18024,0 -4.24156,-0.673892 -2.02167,-0.673892 -3.6073,-1.982035 -1.58563,-1.308143 -2.57665,-3.250538 -0.95137,-1.982039 -0.95137,-4.558679 0,-0.75318 0.51533,-0.75318 0.51532,0 0.51532,0.79282 0,1.54599 0.63426,3.210896 0.67389,1.66491 1.94239,3.012694 1.30814,1.347784 3.2109,2.219879 1.94239,0.872096 4.4794,0.872096 2.25952,0 4.08299,-0.792814 1.86311,-0.832455 3.13162,-2.21988 1.2685,-1.387425 1.94239,-3.171256 0.71353,-1.823475 0.71353,-3.845145 0,-1.98204 -0.83245,-3.88479 -0.79282,-1.90276 -2.25952,-3.36946 -1.42707,-1.46671 -3.4091,-2.3388 -1.9424,-0.91174 -4.24156,-0.91174 z"
         style="font-style:normal;font-variant:normal;font-weight:bold;font-stretch:normal;font-size:39.64070511px;font-family:Burlak;-inkscape-font-specification:'Burlak Bold';stroke-width:1.98203528"
         id="path1468" /></g><g
       aria-label="ВАМ"
       transform="scale(1,-1)"
       style="font-variant:normal;font-weight:bold;font-stretch:normal;font-size:45.70264435px;font-family:Quicksand;-inkscape-font-specification:Quicksand-Bold;writing-mode:lr-tb;fill:#333333;fill-opacity:1;fill-rule:nonzero;stroke:none;stroke-width:1.69550383"
       id="text1291"><path
         d="m 50.519077,-60.55528 v 11.06004 q 0,2.742159 -0.868351,4.798778 -0.86835,2.010916 -2.742158,2.010916 -1.965214,0 -3.016375,-1.416782 -1.005458,-1.416782 -1.005458,-3.199185 0,-2.787861 0.502729,-5.438615 0.502729,-2.650753 1.005458,-5.210101 l -0.457026,0.731242 q -0.594134,2.376538 -1.051161,5.164399 -0.411324,2.787861 -0.411324,4.707372 0,2.102322 1.188269,3.656212 1.233971,1.508187 3.29059,1.508187 1.142567,0 1.919511,-0.594134 0.822648,-0.639837 1.279675,-1.690998 0.457026,-1.096863 0.639837,-2.467943 0.228513,-1.416782 0.228513,-2.970672 v -9.780366 q 0,-0.731242 0.228513,-1.005458 0.228513,-0.319918 0.548432,-0.319918 0.319918,0 0.548431,0.365621 0.274216,0.319918 0.274216,0.959755 v 10.420203 q 0,1.828106 -0.319918,3.473401 -0.274216,1.599593 -0.959756,2.787862 -0.639837,1.188268 -1.7367,1.873808 -1.051161,0.68554 -2.605051,0.68554 -2.787861,0 -4.570264,-1.828106 -1.736701,-1.873809 -1.736701,-5.027291 0,-0.594134 0.0457,-1.096863 0.0457,-0.548432 0.0914,-1.096864 0.137108,-1.7367 0.457027,-3.930427 0.365621,-2.23943 1.005458,-4.524562 0.685539,-2.285132 1.645295,-4.478859 0.959755,-2.193727 2.239429,-3.884725 1.325377,-1.736701 2.970672,-2.787861 1.690998,-1.051161 3.79332,-1.051161 2.742158,0 4.981588,1.55389 2.23943,1.508187 3.29059,3.473401 l -0.09141,-0.68554 q -1.188269,-2.102322 -3.519103,-3.381996 -2.330835,-1.279674 -4.753075,-1.279674 -2.376538,0 -4.250346,1.188269 -1.873809,1.142566 -3.290591,3.062077 -1.416782,1.919511 -2.42224,4.387454 -0.959755,2.467943 -1.599592,5.027291 -0.594135,2.559348 -0.868351,5.072994 -0.274216,2.467942 -0.274216,4.387453 0,1.142566 0.228514,2.422241 0.228513,1.233971 1.096863,2.376537 l -0.639837,-0.137108 q -0.822648,-1.233971 -1.096863,-2.330835 -0.228514,-1.142566 -0.228514,-2.330835 0,-2.056619 0.274216,-4.570264 0.319919,-2.559348 0.959756,-5.210102 0.685539,-2.650753 1.690998,-5.164398 1.05116,-2.513646 2.559348,-4.478859 1.508187,-1.965214 3.473401,-3.153483 1.965213,-1.233971 4.478859,-1.233971 4.433156,0 7.26672,2.513645 2.879267,2.513646 2.92497,6.672586 0,1.965214 -0.868351,3.519104 -0.86835,1.508187 -1.965213,2.696456 1.279674,0.548432 2.559348,1.371079 1.279674,0.776945 2.285132,1.919511 1.051161,1.142566 1.690998,2.605051 0.639837,1.416782 0.639837,3.199185 0,3.381996 -1.55389,5.758533 -1.508187,2.330835 -3.79332,3.79332 -2.239429,1.508187 -4.890183,2.148024 -2.60505,0.68554 -4.84448,0.68554 -1.55389,0 -2.650753,-0.0457 -1.096864,-0.0457 -1.599593,-0.137108 l -1.371079,-0.594134 q 1.096863,0.18281 2.193727,0.274216 1.096863,0.09141 2.239429,0.09141 2.559348,0 5.301507,-0.594135 2.787861,-0.594134 5.072994,-2.010916 2.285132,-1.371079 3.747616,-3.610509 1.462485,-2.285132 1.462485,-5.575722 L 66.560705,-47.073 q 0,3.016375 -1.233972,5.255804 -1.188268,2.23943 -3.29059,3.701915 -2.102322,1.462484 -4.935886,2.148024 -2.787861,0.731242 -5.941343,0.731242 -2.056619,0 -4.158941,-0.502729 -2.102322,-0.457026 -4.021833,-1.233971 -1.873808,-0.731243 -3.473401,-1.690998 -1.599592,-0.959756 -2.650753,-1.919511 -0.182811,-0.137108 -0.411324,-0.457027 -0.18281,-0.365621 -0.18281,-0.731242 0,-0.594134 0.457026,-0.594134 0.594134,0 1.188269,0.457026 1.325377,0.822648 2.559348,1.690998 1.279674,0.822647 2.787861,1.508187 1.508187,0.68554 3.381996,1.096864 1.919511,0.457026 4.433156,0.457026 2.193727,0 4.570265,-0.502729 2.376537,-0.457026 4.296048,-1.508187 1.965214,-1.051161 3.199186,-2.742159 1.279674,-1.7367 1.279674,-4.204643 0,-1.690998 -0.68554,-2.924969 -0.639837,-1.279675 -1.599593,-2.102322 -0.959755,-0.86835 -2.056619,-1.371079 -1.05116,-0.50273 -1.873808,-0.776945 l 0.365621,0.502729 q 0.914053,0.319918 1.873808,0.914053 0.959756,0.548431 1.736701,1.371079 0.822648,0.822648 1.325377,1.919511 0.502729,1.096863 0.502729,2.42224 0,2.559348 -1.325377,4.204643 -1.279674,1.645296 -3.244888,2.650754 -1.965213,1.005458 -4.204643,1.371079 -2.23943,0.411324 -4.158941,0.411324 -2.879266,0 -4.753075,-0.548432 -1.828105,-0.548432 -1.828105,-1.096863 0,-0.365621 0.411323,-0.365621 0.457027,0 1.279674,0.137107 0.822648,0.137108 2.010917,0.319919 1.188269,0.182811 2.787861,0.182811 1.645295,0 3.656212,-0.319919 2.056619,-0.274216 3.839022,-1.051161 1.828106,-0.822647 3.016374,-2.193727 1.233972,-1.416782 1.233972,-3.610509 0,-1.279674 -0.548432,-2.330834 -0.548432,-1.051161 -1.462485,-1.828106 -0.914053,-0.776945 -2.056619,-1.279674 -1.142566,-0.502729 -2.376537,-0.731243 -0.914053,-0.18281 -1.55389,-0.86835 -0.639837,-0.731242 -0.639837,-1.7367 0,-0.822648 0.274216,-1.508188 0.319918,-0.685539 1.051161,-1.096863 1.279674,-0.776945 2.330834,-2.102322 1.096864,-1.371079 1.096864,-2.467942 0,-2.23943 -1.736701,-3.519104 -1.690997,-1.325377 -4.204643,-1.325377 -2.148024,0 -3.747617,2.148025 -1.55389,2.102321 -2.60505,5.118696 -1.005459,3.016374 -1.508188,6.39837 -0.457026,3.336293 -0.457026,5.804236 0,1.188268 0.68554,2.010916 0.731242,0.822648 1.508187,0.822648 0.639837,0 1.142566,-0.868351 0.502729,-0.914052 0.502729,-2.513645 v -12.522525 q 0,-0.959755 0.319919,-1.462484 0.365621,-0.548432 0.822647,-0.548432 0.365621,0 0.639837,0.502729 0.319919,0.502729 0.319919,1.416782 z"
         style="font-style:normal;font-variant:normal;font-weight:bold;font-stretch:normal;font-family:Burlak;-inkscape-font-specification:'Burlak Bold';stroke-width:1.69550383"
         id="path1449" /><path
         d="m 95.975356,-39.029334 q 0,-0.319919 0.09141,-1.462485 0.137108,-1.188269 0.274216,-2.742159 0.137107,-1.55389 0.228513,-3.29059 0.137108,-1.782403 0.18281,-3.29059 H 96.20387 q 0,1.919511 -0.09141,3.564806 -0.09141,1.599592 -0.274216,2.833564 -0.18281,1.188269 -0.502729,1.873808 -0.319918,0.68554 -0.776945,0.68554 -0.685539,0 -0.685539,-0.822648 0,-0.274216 0.0457,-1.233971 0.09141,-1.005458 0.182811,-2.23943 0.09141,-1.279674 0.137108,-2.559348 0.0914,-1.279674 0.0914,-2.193727 -2.193727,-0.0914 -4.935885,-0.18281 -2.742159,-0.137108 -5.712831,0.0457 0,1.736701 -0.319918,3.610509 -0.319919,1.873809 -1.096864,3.427699 -0.776945,1.508187 -2.148024,2.513645 -1.37108,1.005458 -3.427699,1.005458 -1.782403,0 -3.062077,-0.639837 -1.279674,-0.639837 -2.102321,-1.690998 -0.776945,-1.05116 -1.142566,-2.376537 -0.365622,-1.371079 -0.365622,-2.787861 0,-2.285133 0.776945,-3.701915 0.822648,-1.416782 2.102322,-2.239429 1.279674,-0.86835 2.879267,-1.233972 1.645295,-0.411323 3.244887,-0.639837 -0.09141,-2.102321 0.137108,-4.798777 0.274216,-2.742159 1.279674,-5.164399 1.005458,-2.467943 2.92497,-4.158941 1.965213,-1.690998 5.255804,-1.690998 3.381995,0 5.392912,1.828106 2.056619,1.782403 3.107779,4.433157 1.096864,2.60505 1.416782,5.53002 0.365622,2.924969 0.365622,5.118696 1.142564,0 1.965214,-0.182811 0.86835,-0.18281 1.50819,-0.365621 0.63983,-0.228513 1.14256,-0.411324 0.50273,-0.18281 1.00546,-0.18281 0.63984,0 0.63984,0.639837 0,0.502729 -0.63984,0.959755 -0.59413,0.457027 -1.55389,0.822648 -0.91405,0.319918 -2.01092,0.502729 -1.051156,0.182811 -1.965209,0.182811 v 0.594134 q 0.776945,0 1.051159,0.137108 0.27422,0.137108 0.27422,0.411324 0,0.731242 -1.325379,0.731242 0,1.233971 -0.0914,3.244888 -0.0457,2.010916 -0.274216,3.930427 -0.228514,1.919511 -0.68554,3.29059 -0.411324,1.416782 -1.142566,1.416782 -0.502729,0 -0.68554,-0.319918 -0.137108,-0.274216 -0.137108,-0.731242 z M 79.111081,-51.140535 v -0.365621 q -1.233972,0.228513 -2.422241,0.548431 -1.142566,0.274216 -2.056619,0.68554 -1.416782,0.639837 -1.828105,1.416782 -0.411324,0.776945 -0.411324,1.690998 0,0.68554 0.137108,1.371079 l 0.411324,0.457027 q -0.09141,-0.09141 -0.182811,-0.639837 -0.0457,-0.594135 -0.0457,-1.005458 0,-1.096864 0.548432,-1.782404 0.548432,-0.731242 1.416782,-1.188268 0.914053,-0.457027 2.056619,-0.731243 1.188269,-0.274216 2.376538,-0.457026 z m -2.650754,7.449531 q 0.639837,0 1.096864,-0.594134 0.502729,-0.639837 0.822647,-1.55389 0.365621,-0.914053 0.548432,-1.919511 0.182811,-1.051161 0.182811,-1.873809 -1.55389,0.182811 -3.016375,0.639837 -1.462485,0.457027 -2.010916,1.188269 0,0.68554 0.137108,1.416782 0.18281,0.68554 0.502729,1.325377 0.319918,0.594134 0.776945,1.005458 0.457026,0.365621 0.959755,0.365621 z m 6.444073,-6.306965 h -0.365621 q 0,0.457026 -0.0457,1.142566 -0.0457,0.639837 -0.137108,1.279674 -0.09141,0.639837 -0.18281,1.188269 -0.0457,0.548432 -0.137108,0.776945 l 0.0457,1.096863 q 0.50273,-1.462484 0.639837,-2.787861 0.182811,-1.371079 0.182811,-2.696456 z m 0.776945,-1.965214 v 0.319919 q 5.347209,-0.137108 10.648716,0.274216 v -0.502729 q -3.930427,-0.182811 -6.39837,-0.182811 -2.42224,0 -4.250346,0.09141 z m -1.051161,0.411324 H 82.9044 v -0.365621 h -0.365621 v 0.411324 z m 14.122117,-0.137108 -0.548431,-0.0457 v 0.457026 l 0.548431,0.0457 z m 0,-2.010916 v -0.548432 l -0.548431,-0.0457 v 0.548432 z m -8.180773,-0.411324 q 1.55389,0 3.062077,0.09141 1.508187,0.09141 2.696456,0.137108 v -0.548431 q -1.416782,-0.09141 -2.879266,-0.137108 -1.462485,-0.09141 -2.879267,-0.09141 -2.559348,0 -4.890183,0.137108 v 0.502729 q 1.690998,-0.09141 2.742159,-0.09141 1.05116,0 2.148024,0 z m -13.893604,1.051161 1.599593,-0.0457 1.188268,-0.274216 1.55389,-0.274216 v -0.411323 q -1.005458,0.0914 -2.102321,0.365621 -1.051161,0.274216 -2.23943,0.639837 z m 21.525946,-1.828106 0.548431,0.0457 q 0,-1.690998 -0.365621,-4.067536 -0.319918,-2.42224 -1.233971,-4.615967 -0.914053,-2.193727 -2.513646,-3.747617 -1.55389,-1.553889 -4.067535,-1.553889 -1.508187,0 -2.559348,0.411323 -1.051161,0.411324 -1.828106,1.051161 l -0.411324,0.822648 q 0.274216,-0.548432 0.868351,-0.914053 0.639837,-0.411324 1.325376,-0.594135 0.731243,-0.228513 1.416782,-0.319918 0.68554,-0.09141 1.142566,-0.09141 2.376538,-0.0457 3.839022,1.55389 1.508188,1.599592 2.330835,3.793319 0.868351,2.193727 1.188269,4.524562 0.319919,2.285132 0.319919,3.701914 z m -12.522525,-0.274216 q 1.233971,-0.0457 2.467943,-0.0457 1.279674,-0.0457 2.559348,-0.0457 1.416782,0 2.833564,0.09141 1.416782,0.0457 2.787861,0.137108 0,-0.86835 -0.228513,-2.742159 -0.182811,-1.919511 -0.822648,-3.839022 -0.639837,-1.965213 -1.782403,-3.427698 -1.142566,-1.508187 -3.016374,-1.508187 -1.782403,0 -2.970672,1.142566 -1.142566,1.142566 -1.736701,2.924969 -0.639837,1.873809 -0.86835,3.747617 -0.228513,1.873808 -0.319918,3.564806 h 0.365621 q 0.137108,-1.55389 0.319918,-3.427698 0.228513,-1.873809 0.776945,-3.473401 0.594135,-1.645295 1.599593,-2.742159 1.051161,-1.096863 2.833564,-1.096863 1.462484,0 2.60505,1.233971 1.188269,1.188269 1.873809,3.199185 l 0.18281,1.599593 q -0.639837,-2.285132 -1.873808,-3.884725 -1.188269,-1.645295 -2.787861,-1.645295 -1.462485,0 -2.376538,1.051161 -0.86835,1.051161 -1.416782,2.60505 -0.502729,1.508188 -0.731242,3.290591 -0.182811,1.782403 -0.274216,3.29059 z m -0.731242,1.142566 v -0.502729 l -0.365621,0.0457 v 0.502729 z"
         style="font-style:normal;font-variant:normal;font-weight:bold;font-stretch:normal;font-family:Burlak;-inkscape-font-specification:'Burlak Bold';stroke-width:1.69550383"
         id="path1451" /><path
         d="m 107.95445,-40.446116 q 0,-1.690998 0.50273,-4.387454 0.50273,-2.696456 1.32537,-5.758533 0.82265,-3.062078 1.87381,-6.169857 1.09687,-3.153483 2.23943,-5.621426 1.14257,-2.513645 2.28513,-4.067535 1.14257,-1.599593 2.10233,-1.599593 0.95975,0 1.91951,1.005459 0.95975,1.005458 1.7824,2.376537 0.82265,1.325377 1.46248,2.742159 0.63984,1.416782 1.00546,2.239429 l -0.0457,-1.142566 q -0.50273,-1.096863 -1.14257,-2.42224 -0.63983,-1.325377 -1.41678,-2.513645 -0.77694,-1.188269 -1.691,-1.965214 -0.86835,-0.822648 -1.8738,-0.822648 -1.27968,0 -2.55935,1.690998 -1.27968,1.645295 -2.46794,4.296049 -1.18827,2.605051 -2.23943,5.849938 -1.05117,3.244888 -1.87381,6.352668 -0.82265,3.062077 -1.37108,5.71283 -0.54843,2.605051 -0.68554,4.021833 -0.0457,0.502729 -0.36562,0.731242 -0.27422,0.274216 -0.45703,0.274216 -0.59413,0 -0.59413,-1.005458 0,-1.325377 0.41132,-4.021833 0.45703,-2.742158 1.27967,-6.032749 0.82265,-3.29059 1.96522,-6.763991 1.14256,-3.473401 2.55935,-6.306965 1.41678,-2.879267 3.01637,-4.707372 1.6453,-1.828106 3.382,-1.828106 1.32537,0 2.42224,0.86835 1.09686,0.822648 2.05662,2.23943 0.95975,1.416782 1.8281,3.244887 0.91405,1.828106 1.82811,3.79332 l 0.27421,-0.594134 q -0.77694,-1.690998 -1.64529,-3.473401 -0.86835,-1.828106 -1.91951,-3.290591 -1.00546,-1.462484 -2.19373,-2.376537 -1.18827,-0.959756 -2.65075,-0.959756 -1.18827,0 -2.19373,0.68554 -1.00546,0.639837 -1.82811,1.599592 -0.82264,0.959756 -1.46248,2.056619 -0.63984,1.096864 -1.05116,1.965214 l 0.22851,-1.416782 q 0.31992,-0.68554 0.86835,-1.599592 0.59414,-0.959756 1.37108,-1.782404 0.82265,-0.86835 1.82811,-1.462484 1.00545,-0.594135 2.23943,-0.594135 1.69099,0 2.97067,1.005459 1.32537,1.005458 2.37654,2.513645 1.05116,1.508187 1.8738,3.244888 0.82265,1.7367 1.50819,3.244888 0.82265,-1.462485 1.691,-3.10778 0.86835,-1.645295 1.91951,-3.016375 1.09686,-1.416782 2.37654,-2.330835 1.32537,-0.914053 3.01637,-0.914053 1.6453,0 3.06208,1.416782 1.46248,1.37108 2.69646,3.610509 1.23397,2.193727 2.23942,4.935886 1.00546,2.742159 1.78241,5.484317 0.77694,2.696456 1.27967,5.072994 0.54843,2.376537 0.82265,3.839022 v 2.467943 q -1.00546,-4.844481 -2.28513,-9.50615 -1.27968,-4.707373 -2.78786,-8.409287 -1.46249,-3.701914 -3.19919,-5.941344 -1.691,-2.285132 -3.65621,-2.285132 -1.32538,0 -2.33084,0.822648 -1.00545,0.776945 -1.7367,1.55389 l -0.18281,0.822647 q 0.95976,-0.959755 2.01092,-1.873808 1.05116,-0.959756 2.23943,-0.959756 1.691,0 3.19918,2.056619 1.55389,2.056619 2.87927,5.210102 1.32538,3.10778 2.37654,6.809694 1.05116,3.701914 1.7824,7.038207 0.77695,3.336293 1.18827,5.804236 0.41132,2.467943 0.45703,3.062077 0.0457,1.416782 -0.86835,1.416782 -0.18281,0 -0.50273,-0.319919 -0.31992,-0.319918 -0.41133,-0.776945 -0.22851,-1.325376 -0.73124,-3.930427 -0.45702,-2.605051 -1.18827,-5.71283 -0.68554,-3.153483 -1.59959,-6.444073 -0.86835,-3.336293 -1.91951,-6.032749 -1.05116,-2.696456 -2.23943,-4.387454 -1.18827,-1.736701 -2.46794,-1.736701 -0.86835,0 -1.78241,0.959756 -0.91405,0.959755 -1.8738,2.467943 -0.91406,1.462484 -1.82811,3.29059 -0.91405,1.782403 -1.82811,3.519104 l 0.18281,0.639837 q 0.82265,-1.645296 1.7367,-3.473401 0.95976,-1.873809 1.91952,-3.427699 0.95975,-1.599592 1.8281,-2.60505 0.91405,-1.051161 1.59959,-1.051161 0.91406,0 1.87381,1.645295 0.95976,1.599593 1.91951,4.158941 0.95976,2.513645 1.82811,5.621425 0.91405,3.10778 1.59959,6.032749 0.73124,2.879267 1.23397,5.301507 0.50273,2.376537 0.68554,3.519103 0.13711,0.914053 -0.45702,0.914053 -0.22852,0 -0.36562,-0.228513 -0.13711,-0.274216 -0.18282,-0.548432 -0.18281,-1.051161 -0.59413,-2.970672 -0.36562,-1.919511 -0.95975,-4.296048 -0.59414,-2.376538 -1.32538,-4.981588 -0.73124,-2.650754 -1.59959,-5.072994 -0.82265,-2.467943 -1.7367,-4.524562 -0.91406,-2.056619 -1.87381,-3.29059 -0.54843,0.502729 -1.41679,1.7367 -0.82264,1.188269 -1.7824,2.742159 -0.95975,1.55389 -1.91951,3.29059 -0.91405,1.690998 -1.64529,3.153483 0.18281,0.639837 0.54843,1.7367 0.36562,1.051161 0.68554,2.330835 0.36562,1.279674 0.59413,2.650754 0.27422,1.371079 0.27422,2.650753 0,2.924969 -1.23397,4.935886 -1.23398,1.965213 -3.74762,1.965213 -1.46249,0 -2.42224,-0.594134 -0.91405,-0.594135 -1.46249,-1.55389 -0.54843,-0.959756 -0.77694,-2.193727 -0.18281,-1.233971 -0.18281,-2.559348 0,-1.462485 0.31992,-2.879267 0.31992,-1.416782 0.77694,-2.650753 0.50273,-1.279674 1.00546,-2.285132 0.50273,-1.051161 0.86835,-1.736701 -1.09686,-2.787861 -2.60505,-5.758533 -1.50819,-3.016374 -3.4734,-5.255804 -1.50819,2.010916 -2.87927,5.210101 -1.32537,3.153483 -2.46794,6.809694 -1.09686,3.656212 -1.96521,7.403829 -0.86835,3.747617 -1.37108,6.901099 -0.0457,0.411324 -0.36562,0.639837 -0.27422,0.274216 -0.50273,0.274216 -0.36562,0 -0.59414,-0.319919 -0.22851,-0.274215 -0.22851,-1.05116 z m 19.1037,-4.66167 q 0,-0.639837 -0.18281,-1.462485 -0.18281,-0.822647 -0.41132,-1.599592 -0.22851,0.731242 -0.45703,1.508187 -0.22851,0.776945 -0.22851,1.55389 0,1.645295 0.63984,1.782403 0.63983,0.137108 0.63983,-1.782403 z m 3.56481,-0.548432 q 0,-1.873808 -0.63984,-4.296048 -0.59413,-2.422241 -1.14256,-4.341752 l -0.27422,0.594135 q 0.59414,2.010916 1.09686,4.021833 0.54844,2.010916 0.54844,4.113238 0,0.86835 -0.22852,1.873808 -0.18281,1.005458 -0.68554,1.873808 -0.45702,0.822648 -1.18827,1.37108 -0.73124,0.548431 -1.8281,0.548431 -1.46249,0 -2.37654,-1.142566 -0.86835,-1.188268 -1.18827,-2.285132 v 1.142566 q 0.59414,1.142566 1.37108,1.873809 0.82265,0.731242 2.19373,0.731242 1.27967,0 2.10232,-0.594134 0.86835,-0.594135 1.32538,-1.462485 0.50273,-0.914053 0.68554,-1.965214 0.22851,-1.096863 0.22851,-2.056619 z"
         style="font-style:normal;font-variant:normal;font-weight:bold;font-stretch:normal;font-family:Burlak;-inkscape-font-specification:'Burlak Bold';stroke-width:1.69550383"
         id="path1453" /></g><g
       id="g1293"
       transform="matrix(1.6955038,0,0,1.6955038,-333.82437,-89.457247)"><g
         id="g1295"
         clip-path="url(#clipPath1299)"><g
           id="g1301"
           transform="translate(208.1509,130.6416)"><path
             d="M 0,0 C 8.244,15.537 24.587,26.118 43.402,26.118 62.29,26.118 78.687,15.454 86.9,-0.184"
             style="fill:none;stroke:#333333;stroke-width:3.30299997;stroke-linecap:round;stroke-linejoin:miter;stroke-miterlimit:10;stroke-dasharray:none;stroke-opacity:1"
             id="path1303"
             inkscape:connector-curvature="0" /></g><g
           id="g1305"
           transform="translate(297.4805,90.0508)"><path
             d="m 0,0 c -7.079,-18.42 -24.937,-31.491 -45.849,-31.491 -20.972,0 -38.875,13.151 -45.91,31.655"
             style="fill:none;stroke:#333333;stroke-width:3.30299997;stroke-linecap:round;stroke-linejoin:miter;stroke-miterlimit:10;stroke-dasharray:none;stroke-opacity:1"
             id="path1307"
             inkscape:connector-curvature="0" /></g><g
           id="g1309"
           transform="translate(256.6006,147.2607)"><path
             d="m 0,0 c -1.74,0 -3.279,-0.874 -4.198,-2.204 0,0 -0.31,-0.465 -0.801,-0.465 -0.492,0 -0.803,0.465 -0.803,0.465 C -6.722,-0.874 -8.258,0 -9.999,0 c -2.815,0 -5.095,-2.278 -5.095,-5.096 0,-0.664 0.131,-1.297 0.363,-1.879 1.425,-4.431 7.809,-9.641 9.732,-9.831 1.921,0.19 8.305,5.4 9.73,9.831 0.234,0.582 0.363,1.215 0.363,1.879 C 5.094,-2.278 2.814,0 0,0"
             style="fill:#c1272d;fill-opacity:1;fill-rule:nonzero;stroke:none"
             id="path1311"
             inkscape:connector-curvature="0" /></g><g
           id="g1313"
           transform="translate(256.6006,147.2607)"><path
             d="m 0,0 c -1.74,0 -3.279,-0.874 -4.198,-2.204 0,0 -0.31,-0.465 -0.801,-0.465 -0.492,0 -0.803,0.465 -0.803,0.465 C -6.722,-0.874 -8.258,0 -9.999,0 c -2.815,0 -5.095,-2.278 -5.095,-5.096 0,-0.664 0.131,-1.297 0.363,-1.879 1.425,-4.431 7.809,-9.641 9.732,-9.831 1.921,0.19 8.305,5.4 9.73,9.831 0.234,0.582 0.363,1.215 0.363,1.879 C 5.094,-2.278 2.814,0 0,0 Z"
             style="fill:none;stroke:#333333;stroke-width:3.30299997;stroke-linecap:round;stroke-linejoin:miter;stroke-miterlimit:10;stroke-dasharray:none;stroke-opacity:1"
             id="path1315"
             inkscape:connector-curvature="0" /></g></g></g></g></svg>